<?xml version="1.0" encoding="utf-8"?>
<!-- Generator: Adobe Illustrator 23.0.3, SVG Export Plug-In . SVG Version: 6.00 Build 0)  -->
<svg version="1.1" id="Layer_1" xmlns="http://www.w3.org/2000/svg" xmlns:xlink="http://www.w3.org/1999/xlink" x="0px" y="0px"
	 viewBox="0 0 2400 5000" style="enable-background:new 0 0 2400 5000;" xml:space="preserve">
<style type="text/css">
	.st0{fill:#8D70F8;}
	.st1{fill:#886BF3;}
	.st2{fill:#8164EC;}
	.st3{fill:#7D60E8;}
	.st4{fill:#866AF2;}
	.st5{fill:#9477FF;}
	.st6{fill:#9175FD;}
	.st7{fill:#8669F1;}
	.st8{fill:#9275FD;}
	.st9{fill:#8265ED;}
	.st10{fill:#8063EB;}
	.st11{fill:#7457DF;}
	.st12{fill:#795CE4;}
	.st13{fill:#7A57FE;}
	.st14{fill:#7F5DFE;}
	.st15{fill:#8363FF;}
	.st16{fill:#8868FF;}
	.st17{fill:#8C6EFF;}
	.st18{fill:#7D5BFE;}
	.st19{fill:#805FFE;}
	.st20{fill:#8666FF;}
	.st21{fill:#896AFF;}
	.st22{fill:#8464FF;}
	.st23{fill:#8C72FF;}
	.st24{fill:#8B6EFF;}
	.st25{fill:#9175FF;}
	.st26{fill:#967DFF;}
	.st27{fill:#977EFF;}
	.st28{fill:#9276FF;}
	.st29{fill:#9D86FF;}
	.st30{fill:#9F8BFF;}
	.st31{fill:#9D88FF;}
	.st32{fill:#9A84FF;}
	.st33{fill:#805EFF;}
	.st34{fill:#7C59FF;}
	.st35{fill:#A38EFF;}
	.st36{fill:#957CFF;}
	.st37{fill:#9C85FF;}
</style>
<g id="bg">
</g>
<g>
	<g>
		<polygon class="st0" points="1079.8,1363.8 1314.6,1002.4 1122,617.2 698.2,600.7 472.6,963.9 665.2,1340 		"/>
		<polygon class="st1" points="1283.4,1629.8 1611.8,1459.2 1643,1088.7 1314.6,1002.4 1079.8,1363.8 		"/>
		<polygon class="st2" points="731.2,1813.3 509.3,1580.3 665.2,1340 1079.8,1363.8 1283.4,1629.8 1088.9,1839 		"/>
		<polygon class="st3" points="257.9,1382.2 226.8,1019 472.6,963.9 665.2,1340 509.3,1580.3 		"/>
		<polygon class="st4" points="202.9,762.1 397.4,442.9 641.3,345.7 698.2,600.7 472.6,963.9 226.8,1019 		"/>
		<polygon class="st5" points="1281.6,365.9 984.4,215.5 641.3,345.7 698.2,600.7 1122,617.2 		"/>
		<polygon class="st6" points="1591.6,485.1 1765.9,826.3 1643,1088.7 1314.6,1002.4 1122,617.2 1281.6,365.9 		"/>
		<polygon class="st7" points="1318.3,312.7 1584.3,446.6 1591.6,485.1 1281.6,365.9 984.4,215.5 1033.9,200.8 		"/>
		<polygon class="st8" points="1831.9,943.7 1727.3,719.9 1584.3,446.6 1591.6,485.1 1765.9,826.3 		"/>
		<polygon class="st9" points="1795.2,1270.3 1692.5,1519.8 1611.8,1459.2 1643,1088.7 1765.9,826.3 1831.9,943.7 		"/>
		<polygon class="st10" points="1487,1719.7 1692.5,1519.8 1611.8,1459.2 1283.4,1629.8 1088.9,1839 1224.7,1859.1 		"/>
		<polygon class="st11" points="694.5,1824.3 1224.7,1859.1 1088.9,1839 731.2,1813.3 		"/>
		<polygon class="st12" points="261.6,1433.5 470.7,1644.5 694.5,1824.3 731.2,1813.3 509.3,1580.3 257.9,1382.2 		"/>
	</g>
</g>
<g>
	<g>
		<path class="st13" d="M2080.8,2402.2c-1.2-41.2-2.7-82.4-4.4-123.5c60.6-29.6,120.7-59.9,180.4-90.9
			c47.9,16.4,95.6,33.2,143.1,50.2c-5.3,48.8-11.1,97.6-17.4,146.2c-37.7,31.8-75.5,63.1-113.7,94
			C2206.5,2452.4,2143.8,2427,2080.8,2402.2z"/>
		<path class="st14" d="M1776.3,2534.8c1.4-32.2,2.6-64.3,3.7-96.4c66.3-20.8,132.3-42.3,197.9-64.5c48.9,12.2,97.8,24.6,146.4,37
			c-1.1,39.3-2.6,78.5-4.4,117.7c-41.2,26.6-82.7,52.8-124.3,78.4C1922.7,2582.5,1849.6,2558.4,1776.3,2534.8z"/>
		<path class="st15" d="M1451.6,2653.4c4-23.1,8-46.3,11.8-69.3c72-12.1,143.8-24.8,215.4-38.1c50,8,99.9,15.9,149.8,23.9
			c3.1,29.7,6,59.5,8.5,89.2c-44.8,21.4-89.8,42.4-135,62.7C1618.7,2698.6,1535.2,2675.8,1451.6,2653.4z"/>
		<path class="st16" d="M1108.7,2759.7c6.7-14.1,13.3-28.2,19.8-42.3c77.7-3.3,155.3-7.2,232.8-11.7c51.1,3.7,102.1,7.3,153.1,10.7
			c7.3,20.2,14.5,40.4,21.5,60.7c-48.4,16.3-96.9,32-145.6,47.1C1296.6,2802.4,1202.7,2780.9,1108.7,2759.7z"/>
		<path class="st17" d="M752,2862.8c9.3-5.1,18.6-10.1,27.9-15.2c83.4,5.4,166.8,10.3,250.3,14.7c52.1-0.5,104.3-1.4,156.4-2.5
			c11.5,10.7,23,21.4,34.4,32.1c-52,11.1-104,21.6-156.2,31.5C960.6,2902.9,856.4,2882.7,752,2862.8z"/>
	</g>
	<g>
		<path class="st17" d="M36.5,2183.6c-1.1,26.1-2.2,52.2-3.4,78.3c11.9,29.3,23.6,58.6,35.2,88c18.6,9.3,37.3,18.7,55.8,28.2
			c16.5-19.9,32.9-39.9,49.3-59.9c-16.3-35-32.8-69.8-49.6-104.6C94.8,2203.3,65.6,2193.4,36.5,2183.6z"/>
		<path class="st16" d="M319.2,2403.5c-24.8-5.2-49.7-10.4-74.6-15.7c-19.7-30.5-39.6-60.9-59.7-91.1c-2.6-31.6-5.2-63.1-8-94.6
			c39.3,3.2,78.5,6.3,117.5,9.5c26.8,37.4,53.1,75.1,79.1,113.1C355.5,2351.1,337.4,2377.3,319.2,2403.5z"/>
		<path class="st15" d="M514.5,2419.4c-31-0.9-62.1-2-93.4-3.1c-27.8-31.7-55.8-63.1-84.2-94.2c-6.3-37.1-12.7-74-19.4-110.9
			c49.4-3.5,98.7-7.1,147.7-10.9c36.8,40,73,80.5,108.7,121.6C554.2,2354.5,534.5,2387,514.5,2419.4z"/>
		<path class="st14" d="M707.9,2412.7c-37.2,3.3-74.6,6.4-112.2,9.4c-35.8-32.9-72.1-65.3-108.7-97.3c-10-42.6-20.3-85-30.8-127.1
			c59.6-10.1,118.8-20.6,177.8-31.2c46.8,42.6,92.9,86,138.3,130.1C751,2335.4,729.6,2374.2,707.9,2412.7z"/>
		<path class="st13" d="M898.6,2374.4c-43.4,7.6-87.1,14.8-131,21.9c-43.9-34.1-88.3-67.5-133.3-100.4
			c-13.7-48.1-27.8-95.9-42.2-143.4c69.7-16.8,139-34,207.9-51.6c56.9,45.2,112.8,91.4,167.9,138.5
			C945.1,2284.6,922,2329.6,898.6,2374.4z"/>
	</g>
	<g>
		<path class="st13" d="M1686.1,2385.1c-70.2,41.7-141,82.5-212.5,122.2c-36.9-16.4-73.8-32.5-110.9-48.4
			c21.6-56.5,43.1-113.1,64.6-169.7c89.3-59.7,177.5-121.2,264.7-184.1c56.6,24.9,112.8,50.5,168.8,76.6
			C1803.3,2250.1,1745.1,2317.9,1686.1,2385.1z"/>
		<path class="st18" d="M1562.7,2454.7c-63.3,33.1-127,65.5-191.2,96.9c-38.3-20.6-76.9-40.8-115.6-60.7
			c12.9-54.1,25.6-108.2,38.1-162.2c84-48.9,167-99.2,249.2-150.6c56.3,29.7,112.1,60.1,167.5,91.2
			C1661.9,2331.5,1612.6,2393.3,1562.7,2454.7z"/>
		<path class="st19" d="M1381.6,2535.5c-56.3,24.5-112.9,48.5-170,71.7c-39.8-24.8-79.9-49.1-120.4-73.1
			c4.1-51.7,8-103.3,11.7-154.7c78.6-38,156.5-77.2,233.6-117.2c56,34.5,111.4,69.8,166.2,105.8
			C1462.9,2424.2,1422.5,2480.1,1381.6,2535.5z"/>
		<path class="st15" d="M1159.8,2625.7c-49.3,16-98.9,31.5-148.8,46.5c-41.3-29-83-57.5-125.1-85.4c-4.6-49.3-9.5-98.4-14.7-147.3
			c73.3-27.2,146-55.1,218.1-83.8c55.7,39.2,110.7,79.4,164.9,120.4C1223,2526.3,1191.6,2576.2,1159.8,2625.7z"/>
		<path class="st20" d="M905.2,2723.5c-42.3,7.4-84.9,14.5-127.6,21.3c-42.8-33.2-86.1-65.8-129.9-97.8
			c-13.3-46.9-27-93.4-41.2-139.8c67.9-16.4,135.4-33.1,202.6-50.3c55.4,44,109.9,89.1,163.6,135
			C950.5,2636,928,2679.8,905.2,2723.5z"/>
		<path class="st21" d="M621.6,2825c-35.3-1.2-70.8-2.5-106.4-3.9c-44.3-37.4-89.1-74.1-134.6-110.2
			c-22.1-44.4-44.6-88.5-67.6-132.3c62.6-5.5,124.9-11.1,187.1-16.9c55.1,48.8,109.2,98.7,162.3,149.6
			C648.9,2749.4,635.3,2787.2,621.6,2825z"/>
		<path class="st17" d="M171.6,2668.1c54.8,53.6,108.5,108.4,161,164.2c-4.7,31.9-9.3,63.8-14,95.6c-28.4-9.8-56.8-19.5-85.2-29.1
			c-45.8-41.6-92.2-82.5-139.4-122.5c-30.8-42-62.1-83.6-94-124.8C57.2,2656.9,114.4,2662.4,171.6,2668.1z"/>
	</g>
</g>
<g>
	<path class="st21" d="M1490.1,4345c-53.9-58-107.2-116.6-160-175.5c39.3-35.4,79-70.4,119-105c102.4-10.2,204.8-21,307.1-32.4
		c185-34.2,369.9-69.1,554.6-104.8c23.6,25.8,47.4,51.4,71.3,77C2082.6,4112.1,1785.2,4225.7,1490.1,4345z"/>
	<path class="st22" d="M724.8,4703.6c71.9-144.9,146.6-288.4,224.7-430.1c59.1-45.5,118.7-90.4,178.9-134.5
		c67.2,10.8,134.5,21,201.9,30.5c52.8,59,106.1,117.5,160,175.5c-183.7,199.7-357.5,408.1-523,623.2
		C885.1,4881,804.4,4792.8,724.8,4703.6z"/>
	<path class="st23" d="M1215.4,3931.2c44.3,13.3,88.6,26.3,133.1,39c33.4,31.6,67,63,100.7,94.2c-40,34.6-79.6,69.6-119,105
		c-67.4-9.5-134.7-19.6-201.9-30.5c-3.6-48.3-7.2-96.5-10.8-144.8C1149.9,3973,1182.6,3952,1215.4,3931.2z"/>
	<path class="st15" d="M1003.9,3936.6c37.7,19.4,75.6,38.6,113.6,57.5c3.6,48.3,7.2,96.5,10.8,144.8
		c-60.1,44.2-119.7,89-178.9,134.5c-38.3-27.3-76.4-54.8-114.3-82.6c17.9-60.5,36.1-120.9,54.6-181.1
		C927.6,3985.1,965.6,3960.8,1003.9,3936.6z"/>
	<path class="st24" d="M1005.1,3813.1c29.8-17.6,59.8-35.1,89.8-52.4c31.5,21.4,63.1,42.6,94.8,63.6c8.5,35.6,17.1,71.2,25.7,106.8
		c-32.7,20.8-65.3,41.8-97.8,63c-38-18.9-75.9-38.1-113.6-57.5C1004.3,3895.5,1004.6,3854.3,1005.1,3813.1z"/>
	<path class="st20" d="M896,3737.4c36.2,25.5,72.6,50.7,109.1,75.7c-0.4,41.2-0.9,82.3-1.2,123.5c-38.2,24.1-76.2,48.5-114.1,73.1
		c-35-24.4-69.8-49-104.4-73.8c0.6-48.4,1.3-96.8,2-145.2C823.5,3772.8,859.8,3755,896,3737.4z"/>
	<path class="st13" d="M600.5,4347.6c-17.8-43.3-35.6-86.6-53.3-129.9c32.9-68.2,66.5-136.1,100.8-203.7
		c45.6-26.3,91.5-52.3,137.5-78c34.7,24.8,69.5,49.4,104.4,73.8c-18.5,60.3-36.7,120.7-54.6,181.1
		C756.2,4242.1,678,4294.3,600.5,4347.6z"/>
	<path class="st25" d="M1358.4,3828.2c-31.1-15.8-62.1-31.9-93-48.1c-25.3,14.7-50.5,29.4-75.7,44.3c8.5,35.6,17.1,71.2,25.7,106.8
		c44.3,13.3,88.6,26.3,133.1,39c23.1-17.4,46.2-34.7,69.5-51.8C1397.9,3888.3,1378.1,3858.3,1358.4,3828.2z"/>
	<path class="st26" d="M1417.1,3788.9c35.4,12.6,70.8,25,106.4,37.1c34.8,21,69.7,41.7,104.8,62.1c-14.7,15-29.3,30.1-43.8,45.2
		c-55.6-4.6-111.1-9.6-166.6-15c-19.9-30-39.7-60.1-59.4-90.1C1377.9,3815,1397.4,3801.9,1417.1,3788.9z"/>
	<path class="st27" d="M1399.8,3697.3c-20.4-22.3-40.8-44.7-61.1-67.1c-25.7,13.9-51.3,27.9-76.9,41.9c1.2,36,2.4,72,3.6,108
		c30.9,16.2,61.9,32.2,93,48.1c19.5-13.2,39.1-26.3,58.7-39.3C1411.4,3758.4,1405.6,3727.8,1399.8,3697.3z"/>
	<path class="st28" d="M1191.9,3590.9c-32.1,14.6-64.1,29.4-96,44.3c-0.4,41.9-0.7,83.8-1,125.6c31.5,21.4,63.1,42.6,94.8,63.6
		c25.2-14.9,50.4-29.6,75.7-44.3c-1.2-36-2.4-72-3.6-108C1238.4,3645.1,1215.1,3618,1191.9,3590.9z"/>
	<path class="st29" d="M1463.4,3661.1c20.2,17.6,40.5,35.1,60.9,52.5c13.7,25.6,27.4,51.3,41.1,76.9c-14,11.8-28,23.7-41.9,35.6
		c-35.5-12.1-71-24.5-106.4-37.1c-5.8-30.5-11.5-61.1-17.3-91.6C1420.9,3685.1,1442.1,3673.1,1463.4,3661.1z"/>
	<path class="st30" d="M1490.9,3465c2.8,30.4,5.7,60.8,8.5,91.3c-12.1,34.9-24.1,69.8-36,104.8c-21.2,12-42.4,24-63.6,36.2
		c-20.4-22.3-40.8-44.7-61.1-67.1c17-41.8,34.3-83.5,51.8-125.1C1423.9,3491.6,1457.4,3478.2,1490.9,3465z"/>
	<path class="st31" d="M1237.4,3434c43.4-14.5,86.9-28.7,130.5-42.7c7.5,37.9,15,75.9,22.5,113.8c-17.5,41.6-34.8,83.3-51.8,125.1
		c-25.7,13.9-51.3,27.9-76.9,41.9c-23.4-27-46.8-54.1-70-81.2C1206.8,3538.5,1221.9,3486.2,1237.4,3434z"/>
	<path class="st32" d="M1170.1,3271.1c22.4,54.3,44.9,108.6,67.5,162.9c-15.5,52.2-30.7,104.5-45.7,156.8
		c-32.1,14.6-64.1,29.4-96,44.3c-35.1-34.5-69.9-69.2-104.6-104.1c4-70.6,8.1-141.2,12.4-211.8
		C1058.9,3302.8,1114.4,3286.8,1170.1,3271.1z"/>
	<path class="st17" d="M875.5,3582c38.5-17.2,77.1-34.2,115.8-51c34.7,34.9,69.5,69.6,104.6,104.1c-0.4,41.9-0.7,83.8-1,125.6
		c-30,17.3-59.9,34.8-89.8,52.4c-36.5-25-72.9-50.2-109.1-75.7C889.1,3685.6,882.3,3633.8,875.5,3582z"/>
	<path class="st20" d="M631.5,3696.7c-29.3-66.5-58.5-133-87.6-199.6c49.1-21.2,98.3-42,147.7-62.6c60.8,49.8,122,98.9,183.8,147.4
		c6.9,51.8,13.7,103.6,20.6,155.4c-36.3,17.6-72.6,35.3-108.7,53.3C735,3759.8,683.2,3728.5,631.5,3696.7z"/>
	<path class="st33" d="M501.5,3761.3c8,55.3,16.1,110.7,24.1,166c40.5,29.1,81.3,58,122.2,86.6c45.6-26.3,91.5-52.3,137.5-78
		c0.6-48.4,1.3-96.8,2-145.2c-52.2-30.9-104.2-62.2-155.8-94C588,3718,544.8,3739.5,501.5,3761.3z"/>
	<path class="st34" d="M269,4387.1c92-57.7,184.6-114.2,278.1-169.4c32.9-68.2,66.5-136.1,100.8-203.7
		c-40.9-28.6-81.7-57.4-122.2-86.6c-55.8,28.2-111.4,56.8-166.8,85.8c-40,75.9-79.1,152.2-117.4,228.9
		C250.7,4290.4,259.8,4338.7,269,4387.1z"/>
	<path class="st33" d="M239.6,3627.7c86.7,45.8,174,90.4,262,133.7c43.2-21.8,86.5-43.4,130-64.7c-29.3-66.5-58.5-133-87.6-199.6
		c-110.7-66.2-220.1-134.6-328.3-204.8c-66.3,33.3-132.2,67.3-197.8,102C91,3472.9,164.9,3550.7,239.6,3627.7z"/>
	<path class="st35" d="M1551.1,3184.8c-62.5,67.5-123.5,136.4-183.1,206.5c7.5,37.9,15,75.9,22.5,113.8
		c33.4-13.5,66.9-26.8,100.4-40c52.4-52.6,105.6-104.4,159.7-155.2c34.4-52.2,69.4-103.9,105.2-155.2
		C1687.4,3164.5,1619.2,3174.5,1551.1,3184.8z"/>
	<path class="st35" d="M1837.1,3881c4.1-11,8.2-22,12.3-33c-53.3-10.7-106.4-21.9-159.5-33.6c-41.5-7.7-83-15.7-124.5-24
		c-14,11.8-28,23.7-41.9,35.6c34.8,21,69.7,41.7,104.8,62.1C1697.9,3886.2,1767.4,3883.8,1837.1,3881z"/>
	<path class="st36" d="M1794.9,3964.9c-13,22.3-25.9,44.7-38.7,67.1c-102.3,11.4-204.7,22.2-307.1,32.4
		c-33.8-31.2-67.3-62.6-100.7-94.2c23.1-17.4,46.2-34.7,69.5-51.8c55.5,5.4,111,10.4,166.6,15
		C1654.4,3944.6,1724.6,3955.2,1794.9,3964.9z"/>
	<path class="st37" d="M2208.1,3863.1c-12.8-6.1-25.5-12.3-38.3-18.4c-110.9,12.8-221.9,24.9-332.9,36.4
		c-69.6,2.8-139.2,5.2-208.8,7.2c-14.7,15-29.3,30.1-43.8,45.2c70.1,11.3,140.2,21.8,210.5,31.6
		C1932.6,3930.6,2070.3,3896.7,2208.1,3863.1z"/>
	<path class="st34" d="M124.8,4889.3c152.1-186.1,310.4-367.1,475.7-541.7c77.6-53.2,155.8-105.5,234.7-156.7
		c37.9,27.8,76,55.3,114.3,82.6c-78.1,141.7-152.8,285.2-224.7,430.1c-148.8,94-295.9,190.8-441.1,290.2
		C230.4,4959.5,177.4,4924.6,124.8,4889.3z"/>
	<path class="st35" d="M1551.1,3184.8c-62.5,67.5-123.5,136.4-183.1,206.5c7.5,37.9,15,75.9,22.5,113.8
		c33.4-13.5,66.9-26.8,100.4-40c52.4-52.6,105.6-104.4,159.7-155.2c34.4-52.2,69.4-103.9,105.2-155.2
		C1687.4,3164.5,1619.2,3174.5,1551.1,3184.8z"/>
</g>
</svg>
