<?xml version="1.0" encoding="utf-8"?>
<!-- Generator: Adobe Illustrator 23.0.2, SVG Export Plug-In . SVG Version: 6.00 Build 0)  -->
<svg version="1.1" xmlns="http://www.w3.org/2000/svg" xmlns:xlink="http://www.w3.org/1999/xlink" x="0px" y="0px"
	 viewBox="0 0 1920 1920" style="enable-background:new 0 0 1920 1920;" xml:space="preserve">
<style type="text/css">
	.st0{fill:#9073FF;stroke:#000000;stroke-miterlimit:10;}
	.st1{fill:#896AFF;}
	.st2{fill:#8464FF;}
	.st3{fill:#7F5DFF;}
	.st4{fill:#7C5AFF;}
	.st5{fill:#8363FF;}
	.st6{fill:#9073FF;}
	.st7{fill:#8D6FFF;}
	.st8{fill:#8E71FF;}
	.st9{fill:#805EFF;}
	.st10{fill:#7450FA;}
	.st11{fill:#7854FE;}
</style>
<g id="bg">
</g>
<g id="Layer_2">
	<rect x="0" class="st0" width="1920" height="1920"/>
	<polygon class="st1" points="1058.87,1283.37 1293.68,921.98 1101.06,536.75 677.3,520.24 451.67,883.46 644.28,1259.52 	"/>
	<polygon class="st2" points="1262.5,1549.37 1590.86,1378.76 1622.05,1008.2 1293.68,921.98 1058.87,1283.37 	"/>
	<polygon class="st3" points="710.32,1732.81 488.35,1499.84 644.28,1259.52 1058.87,1283.37 1262.5,1549.37 1068.04,1758.5 	"/>
	<polygon class="st4" points="237.03,1301.72 205.85,938.49 451.67,883.46 644.28,1259.52 488.35,1499.84 	"/>
	<polygon class="st5" points="182,681.67 376.45,362.47 620.44,265.25 677.3,520.24 451.67,883.46 205.85,938.49 	"/>
	<polygon class="st6" points="1260.66,285.43 963.48,135 620.44,265.25 677.3,520.24 1101.06,536.75 	"/>
	<polygon class="st7" points="1570.69,404.67 1744.96,745.88 1622.05,1008.2 1293.68,921.98 1101.06,536.75 1260.66,285.43 	"/>
	<polygon class="st5" points="1297.35,232.23 1563.35,366.14 1570.69,404.67 1260.66,285.43 963.48,135 1013.01,120.32 	"/>
	<polygon class="st8" points="1811,863.28 1706.44,639.48 1563.35,366.14 1570.69,404.67 1744.96,745.88 	"/>
	<polygon class="st9" points="1774.31,1189.81 1671.58,1439.3 1590.86,1378.76 1622.05,1008.2 1744.96,745.88 1811,863.28 	"/>
	<polygon class="st3" points="1466.12,1639.26 1671.58,1439.3 1590.86,1378.76 1262.5,1549.37 1068.04,1758.5 1203.79,1778.68 	"/>
	<polygon class="st10" points="673.64,1743.82 1203.79,1778.68 1068.04,1758.5 710.32,1732.81 	"/>
	<polygon class="st11" points="240.7,1353.08 449.83,1564.04 673.64,1743.82 710.32,1732.81 488.35,1499.84 237.03,1301.72 	"/>
</g>
</svg>
