<?xml version="1.0" encoding="UTF-8" standalone="no"?>
<!-- Generator: Adobe Illustrator 23.0.2, SVG Export Plug-In . SVG Version: 6.00 Build 0)  -->

<svg
   xmlns:dc="http://purl.org/dc/elements/1.1/"
   xmlns:cc="http://creativecommons.org/ns#"
   xmlns:rdf="http://www.w3.org/1999/02/22-rdf-syntax-ns#"
   xmlns:svg="http://www.w3.org/2000/svg"
   xmlns="http://www.w3.org/2000/svg"
   xmlns:sodipodi="http://sodipodi.sourceforge.net/DTD/sodipodi-0.dtd"
   xmlns:inkscape="http://www.inkscape.org/namespaces/inkscape"
   version="1.1"
   x="0px"
   y="0px"
   viewBox="0 0 75.320001 76.900003"
   xml:space="preserve"
   id="svg11"
   sodipodi:docname="logo-symbol.svg"
   width="75.32"
   height="76.900002"
   inkscape:version="0.92.4 (5da689c313, 2019-01-14)"><metadata
   id="metadata17"><rdf:RDF><cc:Work
       rdf:about=""><dc:format>image/svg+xml</dc:format><dc:type
         rdf:resource="http://purl.org/dc/dcmitype/StillImage" /><dc:title></dc:title></cc:Work></rdf:RDF></metadata><defs
   id="defs15" /><sodipodi:namedview
   pagecolor="#ffffff"
   bordercolor="#666666"
   borderopacity="1"
   objecttolerance="10"
   gridtolerance="10"
   guidetolerance="10"
   inkscape:pageopacity="0"
   inkscape:pageshadow="2"
   inkscape:window-width="2560"
   inkscape:window-height="1417"
   id="namedview13"
   showgrid="false"
   fit-margin-top="0"
   fit-margin-left="0"
   fit-margin-right="0"
   fit-margin-bottom="0"
   inkscape:zoom="1.8501098"
   inkscape:cx="37.659999"
   inkscape:cy="38.450001"
   inkscape:window-x="1912"
   inkscape:window-y="-8"
   inkscape:window-maximized="1"
   inkscape:current-layer="svg11" />
<style
   type="text/css"
   id="style2">
	.st0{fill:#FFFFFF;}
	.st1{fill:none;}
	.st2{fill:#6759FF;}
</style>
<g
   id="bg"
   transform="translate(-26.12,-25.33)">
	<rect
   class="st1"
   width="127.56"
   height="127.56"
   id="rect4"
   x="0"
   y="0"
   style="fill:none" />
</g>
<g
   id="Layer_2"
   transform="translate(-26.12,-25.33)">
	<path
   class="st0"
   d="m 88.32,37.43 c -1.28,0 -2.32,-1.04 -2.32,-2.32 0,-1.28 1.04,-2.32 2.32,-2.32 1.28,0 2.32,1.04 2.32,2.32 0,1.28 -1.04,2.32 -2.32,2.32 z m -2.6,0.81 c 0,-1.25 -1.01,-2.26 -2.26,-2.26 -1.25,0 -2.26,1.01 -2.26,2.26 0,1.25 1.01,2.26 2.26,2.26 1.25,0 2.26,-1.01 2.26,-2.26 z m -5.4,2.15 c 0,-1.23 -1,-2.23 -2.23,-2.23 -1.23,0 -2.23,1 -2.23,2.23 0,1.23 1,2.23 2.23,2.23 1.23,0.01 2.23,-0.99 2.23,-2.23 z m -5.65,1.36 c 0,-1.22 -0.99,-2.21 -2.21,-2.21 -1.22,0 -2.21,0.99 -2.21,2.21 0,1.22 0.99,2.21 2.21,2.21 1.22,0 2.21,-0.99 2.21,-2.21 z M 68.9,42.4 c 0,-1.21 -0.98,-2.19 -2.19,-2.19 -1.21,0 -2.19,0.98 -2.19,2.19 0,1.21 0.98,2.19 2.19,2.19 1.2,0.01 2.19,-0.98 2.19,-2.19 z m -5.8,0.02 c 0,-1.21 -0.98,-2.19 -2.19,-2.19 -1.21,0 -2.19,0.98 -2.19,2.19 0,1.21 0.98,2.19 2.19,2.19 1.21,0 2.19,-0.98 2.19,-2.19 z M 57.37,41.8 c 0,-1.22 -0.99,-2.21 -2.21,-2.21 -1.22,0 -2.21,0.99 -2.21,2.21 0,1.22 0.99,2.21 2.21,2.21 1.22,0 2.21,-0.99 2.21,-2.21 z m -5.62,-1.32 c 0,-1.23 -1,-2.23 -2.23,-2.23 -1.23,0 -2.23,1 -2.23,2.23 0,1.23 1,2.23 2.23,2.23 1.23,0 2.23,-1 2.23,-2.23 z m -5.36,-2.12 c 0,-1.25 -1.01,-2.26 -2.26,-2.26 -1.25,0 -2.26,1.01 -2.26,2.26 0,1.25 1.01,2.26 2.26,2.26 1.25,0 2.26,-1.01 2.26,-2.26 z m -4.83,-3.11 c 0,-1.28 -1.04,-2.32 -2.32,-2.32 -1.28,0 -2.32,1.04 -2.32,2.32 0,1.28 1.04,2.32 2.32,2.32 1.28,0 2.32,-1.04 2.32,-2.32 z m -1.67,58.17 c 3.03,-2.71 10.45,-7.39 23.89,-7.53 13.44,0.14 20.86,4.82 23.89,7.53 l 2.77,-3.28 C 87.98,88.07 79.04,82.27 63.78,82.31 48.51,82.27 39.58,88.07 37.12,90.14 Z m 61.55,-31.78 c 0,0 -18.83,0.36 -37.66,0.36 -18.83,0 -37.66,-0.36 -37.66,-0.36 v 4.29 c 0,0 18.83,-0.36 37.66,-0.36 18.83,0 37.66,0.36 37.66,0.36 z m -72.06,18.6 c 2.78,-0.75 14.65,-4.18 34.4,-4.29 19.75,0.12 31.62,3.55 34.4,4.3 l 1.04,-4.17 C 96.3,75.42 82.18,72.29 63.78,72.37 45.38,72.29 31.26,75.41 28.34,76.08 Z m 23.98,21.99 c 1.15,-1.87 4.38,-6.29 10.42,-6.39 6.03,0.09 9.27,4.52 10.42,6.39 l 3.5,-2.49 C 76.03,97.66 71.33,92.17 63.78,92.26 56.23,92.17 51.53,97.66 49.86,99.74 Z M 32.49,48.85 c 0,-1.45 -1.18,-2.63 -2.63,-2.63 -1.45,0 -2.63,1.18 -2.63,2.63 0,1.45 1.18,2.63 2.63,2.63 1.45,0 2.63,-1.18 2.63,-2.63 z m 6.58,1.41 c 0,-1.39 -1.13,-2.52 -2.52,-2.52 -1.39,0 -2.52,1.13 -2.52,2.52 0,1.39 1.13,2.52 2.52,2.52 1.39,0 2.52,-1.13 2.52,-2.52 z m 6.69,1.05 c 0,-1.35 -1.1,-2.45 -2.45,-2.45 -1.35,0 -2.45,1.1 -2.45,2.45 0,1.35 1.1,2.45 2.45,2.45 1.35,0 2.45,-1.1 2.45,-2.45 z m 6.75,0.72 c 0,-1.33 -1.07,-2.4 -2.4,-2.4 -1.33,0 -2.4,1.07 -2.4,2.4 0,1.33 1.07,2.4 2.4,2.4 1.33,0 2.4,-1.08 2.4,-2.4 z m 6.81,0.41 c 0,-1.32 -1.07,-2.38 -2.38,-2.38 -1.32,0 -2.38,1.07 -2.38,2.38 0,1.32 1.07,2.38 2.38,2.38 1.31,0 2.38,-1.06 2.38,-2.38 z m 6.81,0.13 c 0,-1.3 -1.06,-2.36 -2.36,-2.36 -1.3,0 -2.36,1.06 -2.36,2.36 0,1.3 1.06,2.36 2.36,2.36 1.3,0 2.36,-1.06 2.36,-2.36 z m 6.86,-0.13 c 0,-1.32 -1.07,-2.38 -2.38,-2.38 -1.32,0 -2.38,1.07 -2.38,2.38 0,1.31 1.07,2.38 2.38,2.38 1.32,0 2.38,-1.06 2.38,-2.38 z m 6.85,-0.41 c 0,-1.33 -1.07,-2.4 -2.4,-2.4 -1.33,0 -2.4,1.07 -2.4,2.4 0,1.33 1.07,2.4 2.4,2.4 1.32,0 2.4,-1.08 2.4,-2.4 z m 6.85,-0.72 c 0,-1.35 -1.1,-2.45 -2.45,-2.45 -1.35,0 -2.45,1.1 -2.45,2.45 0,1.35 1.1,2.45 2.45,2.45 1.35,0 2.45,-1.1 2.45,-2.45 z m 6.83,-1.05 c 0,-1.39 -1.13,-2.52 -2.52,-2.52 -1.39,0 -2.52,1.13 -2.52,2.52 0,1.39 1.13,2.52 2.52,2.52 1.39,0 2.52,-1.13 2.52,-2.52 z m 6.8,-1.41 c 0,-1.45 -1.18,-2.63 -2.63,-2.63 -1.45,0 -2.63,1.18 -2.63,2.63 0,1.45 1.18,2.63 2.63,2.63 1.46,0 2.63,-1.18 2.63,-2.63 z M 55.6,27.55 c 0,-1.23 -0.99,-2.22 -2.22,-2.22 -1.23,0 -2.22,0.99 -2.22,2.22 0,1.23 0.99,2.22 2.22,2.22 1.23,0 2.22,-0.99 2.22,-2.22 z m 4.63,3.46 c 0,-1.17 -0.95,-2.12 -2.12,-2.12 -1.17,0 -2.12,0.95 -2.12,2.12 0,1.17 0.95,2.12 2.12,2.12 1.17,0 2.12,-0.95 2.12,-2.12 z m 5.63,1.42 c 0,-1.15 -0.93,-2.08 -2.08,-2.08 -1.15,0 -2.08,0.93 -2.08,2.08 0,1.15 0.93,2.08 2.08,2.08 1.15,0 2.08,-0.93 2.08,-2.08 z m 5.7,-1.42 c 0,-1.17 -0.95,-2.12 -2.12,-2.12 -1.17,0 -2.12,0.95 -2.12,2.12 0,1.17 0.95,2.12 2.12,2.12 1.17,0 2.12,-0.95 2.12,-2.12 z m 4.84,-3.46 c 0,-1.23 -0.99,-2.22 -2.22,-2.22 -1.23,0 -2.22,0.99 -2.22,2.22 0,1.23 0.99,2.22 2.22,2.22 1.23,0 2.22,-0.99 2.22,-2.22 z"
   id="path7"
   inkscape:connector-curvature="0"
   style="fill:#ffffff" />
</g>
<g
   id="guides"
   transform="translate(-26.12,-25.33)">
</g>
</svg>