<?xml version="1.0" encoding="utf-8"?>
<!-- Generator: Adobe Illustrator 23.0.2, SVG Export Plug-In . SVG Version: 6.00 Build 0)  -->
<svg version="1.1" xmlns="http://www.w3.org/2000/svg" xmlns:xlink="http://www.w3.org/1999/xlink" x="0px" y="0px"
	 viewBox="0 0 1920 1920" style="enable-background:new 0 0 1920 1920;" xml:space="preserve">
<style type="text/css">
	.st0{fill:#8D70F8;}
	.st1{fill:#886BF3;}
	.st2{fill:#8164EC;}
	.st3{fill:#7D60E8;}
	.st4{fill:#866AF2;}
	.st5{fill:#9477FF;}
	.st6{fill:#9175FD;}
	.st7{fill:#8669F1;}
	.st8{fill:#9275FD;}
	.st9{fill:#8265ED;}
	.st10{fill:#8063EB;}
	.st11{fill:#7457DF;}
	.st12{fill:#795CE4;}
</style>
<g id="bg">
</g>
<g id="Layer_2">
	<rect x="0" class="st0" width="1920" height="1920"/>
	<g>
		<polygon class="st0" points="1039.87,1276.37 1274.68,914.98 1082.06,529.75 658.3,513.24 432.67,876.46 625.28,1252.52 		"/>
		<polygon class="st1" points="1243.5,1542.37 1571.86,1371.76 1603.05,1001.2 1274.68,914.98 1039.87,1276.37 		"/>
		<polygon class="st2" points="691.32,1725.81 469.35,1492.84 625.28,1252.52 1039.87,1276.37 1243.5,1542.37 1049.04,1751.5 		"/>
		<polygon class="st3" points="218.03,1294.72 186.85,931.49 432.67,876.46 625.28,1252.52 469.35,1492.84 		"/>
		<polygon class="st4" points="163,674.67 357.45,355.47 601.44,258.25 658.3,513.24 432.67,876.46 186.85,931.49 		"/>
		<polygon class="st5" points="1241.66,278.43 944.48,128 601.44,258.25 658.3,513.24 1082.06,529.75 		"/>
		<polygon class="st6" points="1551.69,397.67 1725.96,738.88 1603.05,1001.2 1274.68,914.98 1082.06,529.75 1241.66,278.43 		"/>
		<polygon class="st7" points="1278.35,225.23 1544.35,359.14 1551.69,397.67 1241.66,278.43 944.48,128 994.01,113.32 		"/>
		<polygon class="st8" points="1792,856.28 1687.44,632.48 1544.35,359.14 1551.69,397.67 1725.96,738.88 		"/>
		<polygon class="st9" points="1755.31,1182.81 1652.58,1432.3 1571.86,1371.76 1603.05,1001.2 1725.96,738.88 1792,856.28 		"/>
		<polygon class="st10" points="1447.12,1632.26 1652.58,1432.3 1571.86,1371.76 1243.5,1542.37 1049.04,1751.5 1184.79,1771.68 		
			"/>
		<polygon class="st11" points="654.64,1736.82 1184.79,1771.68 1049.04,1751.5 691.32,1725.81 		"/>
		<polygon class="st12" points="221.7,1346.08 430.83,1557.04 654.64,1736.82 691.32,1725.81 469.35,1492.84 218.03,1294.72 		"/>
	</g>
</g>
</svg>
